<svg width="41" height="36" viewBox="0 0 41 36" fill="none" xmlns="http://www.w3.org/2000/svg">
    <path d="M40.2743 19.3837C40.2743 30.2964 31.5025 35.3628 25.7229 35.3628C15.3876 34.6761 30.6704 32.6159 30.6704 21.7032C25.1073 16.5864 9.89366 -2.82917 38.3863 0.349484C22.9967 15.3836 40.2743 8.47097 40.2743 19.3837Z" fill="#FF1414"/>
    <path d="M11.1 18.5876C11.1 28.2042 8.61518 36 5.55 36C2.48482 36 0 28.2042 0 18.5876C0 8.97094 1.98027 2.57141 5.04545 2.57141C8.11063 2.57141 11.1 8.97094 11.1 18.5876Z" fill="#FF1414"/>
    <ellipse cx="10.2192" cy="8.57143" rx="8.80952" ry="8.57143" fill="#FF1414"/>
    <ellipse cx="9.9866" cy="8.76108" rx="3.11062" ry="3.02655" fill="white"/>
</svg>
